<svg id="visual" viewBox="0 0 900 100" width="900" height="100" xmlns="http://www.w3.org/2000/svg" xmlns:xlink="http://www.w3.org/1999/xlink" version="1.1"><path d="M0 82L21.5 81.5C43 81 86 80 128.8 79.5C171.7 79 214.3 79 257.2 81.5C300 84 343 89 385.8 89C428.7 89 471.3 84 514.2 82C557 80 600 81 642.8 83.5C685.7 86 728.3 90 771.2 90.5C814 91 857 88 878.5 86.5L900 85L900 0L878.5 0C857 0 814 0 771.2 0C728.3 0 685.7 0 642.8 0C600 0 557 0 514.2 0C471.3 0 428.7 0 385.8 0C343 0 300 0 257.2 0C214.3 0 171.7 0 128.8 0C86 0 43 0 21.5 0L0 0Z" fill="#becdeb"></path><path d="M0 64L21.5 65.2C43 66.3 86 68.7 128.8 68.2C171.7 67.7 214.3 64.3 257.2 63C300 61.7 343 62.3 385.8 63.2C428.7 64 471.3 65 514.2 66.2C557 67.3 600 68.7 642.8 67.7C685.7 66.7 728.3 63.3 771.2 62.8C814 62.3 857 64.7 878.5 65.8L900 67L900 0L878.5 0C857 0 814 0 771.2 0C728.3 0 685.7 0 642.8 0C600 0 557 0 514.2 0C471.3 0 428.7 0 385.8 0C343 0 300 0 257.2 0C214.3 0 171.7 0 128.8 0C86 0 43 0 21.5 0L0 0Z" fill="#88a7ed"></path><path d="M0 45L21.5 43.7C43 42.3 86 39.7 128.8 38.5C171.7 37.3 214.3 37.7 257.2 39.5C300 41.3 343 44.7 385.8 45C428.7 45.3 471.3 42.7 514.2 41.5C557 40.3 600 40.7 642.8 41.2C685.7 41.7 728.3 42.3 771.2 43.8C814 45.3 857 47.7 878.5 48.8L900 50L900 0L878.5 0C857 0 814 0 771.2 0C728.3 0 685.7 0 642.8 0C600 0 557 0 514.2 0C471.3 0 428.7 0 385.8 0C343 0 300 0 257.2 0C214.3 0 171.7 0 128.8 0C86 0 43 0 21.5 0L0 0Z" fill="#537fec"></path><path d="M0 27L21.5 25.8C43 24.7 86 22.3 128.8 21.2C171.7 20 214.3 20 257.2 21.2C300 22.3 343 24.7 385.8 26.2C428.7 27.7 471.3 28.3 514.2 27C557 25.7 600 22.3 642.8 20.5C685.7 18.7 728.3 18.3 771.2 19.5C814 20.7 857 23.3 878.5 24.7L900 26L900 0L878.5 0C857 0 814 0 771.2 0C728.3 0 685.7 0 642.8 0C600 0 557 0 514.2 0C471.3 0 428.7 0 385.8 0C343 0 300 0 257.2 0C214.3 0 171.7 0 128.8 0C86 0 43 0 21.5 0L0 0Z" fill="#0955e5"></path></svg>